<svg width="20" height="20" viewBox="0 0 20 20" fill="none" xmlns="http://www.w3.org/2000/svg">
<rect x="7" y="1" width="6" height="3" rx="1" stroke="#4672FF" stroke-width="2" stroke-linecap="round" stroke-linejoin="round"/>
<path d="M4.16675 10.0001C4.16675 9.53984 4.53984 9.16675 5.00008 9.16675C5.46032 9.16675 5.83341 9.53984 5.83341 10.0001V15.8334H4.16675V10.0001Z" fill="#4672FF"/>
<path d="M7.5 13.3333C7.5 12.8731 7.8731 12.5 8.33333 12.5C8.79357 12.5 9.16667 12.8731 9.16667 13.3333V15.8333H7.5V13.3333Z" fill="#4672FF"/>
<path d="M12.5 11.6666C12.5 11.2063 12.1269 10.8333 11.6667 10.8333C11.2064 10.8333 10.8333 11.2063 10.8333 11.6666V15.8333H12.5V11.6666Z" fill="#4672FF"/>
<path d="M15.8333 8.33333C15.8333 7.8731 15.4602 7.5 14.9999 7.5C14.5397 7.5 14.1666 7.8731 14.1666 8.33333V15.8333H15.8333V8.33333Z" fill="#4672FF"/>
<path d="M15.9375 1C15.3852 1 14.9375 1.44772 14.9375 2C14.9375 2.55228 15.3852 3 15.9375 3V1ZM18 5V16H20V5H18ZM16 18H4V20H16V18ZM2 16V5H0V16H2ZM4 3H7.54545V1H4V3ZM15.9375 3H16V1H15.9375V3ZM4 18C2.89543 18 2 17.1046 2 16H0C0 18.2091 1.79086 20 4 20V18ZM18 16C18 17.1046 17.1046 18 16 18V20C18.2091 20 20 18.2091 20 16H18ZM20 5C20 2.79086 18.2091 1 16 1V3C17.1046 3 18 3.89543 18 5H20ZM2 5C2 3.89543 2.89543 3 4 3V1C1.79086 1 0 2.79086 0 5H2Z" fill="#4672FF"/>
</svg>
