<svg width="32" height="32" viewBox="0 0 32 32" fill="none" xmlns="http://www.w3.org/2000/svg">
<rect x="-2" y="16" width="25.4559" height="25.4559" rx="5" transform="rotate(-45 -2 16)" fill="#4672FF"/>
<path d="M16.2235 10.5559L16.3157 10.6373L20.232 14.5536C20.6143 14.936 20.6143 15.5559 20.232 15.9383C19.8791 16.2912 19.3237 16.3183 18.9396 16.0197L18.8474 15.9383L16.6025 13.6931V22.0995C16.6025 22.6402 16.1641 23.0785 15.6234 23.0785C15.1213 23.0785 14.7075 22.7006 14.6509 22.2136L14.6443 22.0995V13.6931L12.3994 15.9383C12.0465 16.2912 11.4911 16.3183 11.107 16.0197L11.0148 15.9383C10.6619 15.5853 10.6347 15.03 10.9333 14.6459L11.0148 14.5536L14.9311 10.6373C15.284 10.2844 15.8394 10.2573 16.2235 10.5559Z" fill="white"/>
<path d="M30.5 6C30.5 7.933 28.933 9.5 27 9.5C25.067 9.5 23.5 7.933 23.5 6C23.5 4.067 25.067 2.5 27 2.5C28.933 2.5 30.5 4.067 30.5 6Z" fill="#ED7474" stroke="white"/>
</svg>
