<svg width="114" height="30" viewBox="0 0 114 30" fill="none" xmlns="http://www.w3.org/2000/svg">
<path fill-rule="evenodd" clip-rule="evenodd" d="M38 8.84393V6.79602H47.9012V8.84393H44.2816V20.0316H41.6004V8.84393H38ZM54.4508 20.1834C52.9059 20.1834 51.6483 19.6872 50.678 18.6948C49.7077 17.7025 49.2225 16.391 49.2225 14.7602C49.2225 13.1295 49.7109 11.8243 50.6876 10.8445C51.6643 9.86483 52.9282 9.37499 54.4795 9.37499C56.0307 9.37499 57.3043 9.85219 58.3002 10.8066C59.296 11.7611 59.7939 13.0347 59.7939 14.6275C59.7939 14.9941 59.7684 15.3354 59.7173 15.6514H51.9803C52.0441 16.3341 52.2995 16.884 52.7463 17.3011C53.1932 17.7183 53.7613 17.9269 54.4508 17.9269C55.3828 17.9269 56.0722 17.5476 56.5191 16.7892H59.4301C59.1237 17.7878 58.53 18.6032 57.649 19.2353C56.7681 19.8673 55.702 20.1834 54.4508 20.1834ZM56.2223 12.2579C55.7435 11.8408 55.1658 11.6322 54.4891 11.6322C53.8124 11.6322 53.2475 11.8408 52.7942 12.2579C52.341 12.6751 52.0697 13.2313 51.9803 13.9266H56.9979C56.9596 13.2313 56.7011 12.6751 56.2223 12.2579ZM64.62 9.52668V11.385C65.335 10.045 66.3692 9.37499 67.7225 9.37499V12.1055H67.0522C66.2479 12.1055 65.6414 12.3046 65.2329 12.7028C64.8243 13.101 64.62 13.7868 64.62 14.7602V20.0317H61.9197V9.52668H64.62ZM72.3381 9.52668V11.1005C73.0148 9.95016 74.1128 9.37499 75.6321 9.37499C76.4364 9.37499 77.1546 9.55828 77.7866 9.92489C78.4186 10.2915 78.9069 10.8161 79.2517 11.4987C79.6219 10.8414 80.1294 10.3231 80.7742 9.94385C81.4189 9.5646 82.1435 9.37499 82.9478 9.37499C84.2118 9.37499 85.23 9.76686 86.0024 10.5506C86.7749 11.3344 87.1611 12.4342 87.1611 13.85V20.0317H84.4799V14.2293C84.4799 13.4076 84.2693 12.7787 83.8479 12.3426C83.4266 11.9064 82.8521 11.6884 82.1243 11.6884C81.3966 11.6884 80.8189 11.9064 80.3911 12.3426C79.9634 12.7787 79.7496 13.4076 79.7496 14.2293V20.0317H77.0684V14.2293C77.0684 13.4076 76.8578 12.7787 76.4364 12.3426C76.0151 11.9064 75.4406 11.6884 74.7128 11.6884C73.9851 11.6884 73.4074 11.9064 72.9797 12.3426C72.5519 12.7787 72.3381 13.4076 72.3381 14.2293V20.0317H69.6378V9.52668H72.3381ZM89.938 20.0319V6H92.6383V20.0319H89.938ZM98.3644 19.8419L94.2086 9.52652H97.2345L99.9348 16.9976L102.788 9.52652H105.604L98.9773 24.9996H96.162L98.3644 19.8419Z" fill="#363840"/>
<path fill-rule="evenodd" clip-rule="evenodd" d="M15 30C23.2843 30 30 23.2843 30 15C30 6.71573 23.2843 0 15 0C6.71573 0 0 6.71573 0 15C0 23.2843 6.71573 30 15 30ZM12.6316 8.1084H21.6119L18.7171 12.1624H21.3158L12.6316 24.3246V20.6852V12.1624V8.1084Z" fill="#4672FF"/>
</svg>
