<svg width="20" height="20" viewBox="0 0 20 20" fill="none" xmlns="http://www.w3.org/2000/svg">
<path d="M19 6V7C19.4054 7 19.7706 6.75527 19.9248 6.38037C20.079 6.00546 19.9916 5.57456 19.7036 5.28936L19 6ZM13.9497 1L14.6532 0.28936L14.3609 0H13.9497V1ZM20 10C20 9.44771 19.5523 9 19 9C18.4477 9 18 9.44771 18 10H20ZM14 6H13V7H14V6ZM15 2C15 1.44772 14.5523 1 14 1C13.4477 1 13 1.44772 13 2H15ZM19.7036 5.28936L14.6532 0.28936L13.2461 1.71064L18.2964 6.71064L19.7036 5.28936ZM13.9497 0H2.2478V2H13.9497V0ZM2.2478 0C1.16034 0 0 0.782957 0 2.06664H2C2 2.10391 1.97981 2.10281 2.01522 2.07256C2.05283 2.04043 2.132 2 2.2478 2V0ZM0 2.06664V17.9334H2V2.06664H0ZM0 17.9334C0 19.217 1.16034 20 2.2478 20V18C2.132 18 2.05283 17.9596 2.01522 17.9274C1.97981 17.8972 2 17.8961 2 17.9334H0ZM2.2478 20H17.7522V18H2.2478V20ZM17.7522 20C18.8397 20 20 19.217 20 17.9334H18C18 17.8961 18.0202 17.8972 17.9848 17.9274C17.9472 17.9596 17.868 18 17.7522 18V20ZM20 17.9334V10H18V17.9334H20ZM19 5H14V7H19V5ZM15 6V2H13V6H15Z" fill="#4672FF"/>
<path fill-rule="evenodd" clip-rule="evenodd" d="M13 13C13.5523 13 14 13.4477 14 14C14 14.5523 13.5523 15 13 15H6C5.44772 15 5 14.5523 5 14C5 13.4477 5.44772 13 6 13H13Z" fill="#4672FF"/>
<path fill-rule="evenodd" clip-rule="evenodd" d="M10 8C10.5523 8 11 8.44772 11 9C11 9.55228 10.5523 10 10 10H6C5.44772 10 5 9.55228 5 9C5 8.44772 5.44772 8 6 8H10Z" fill="#4672FF"/>
</svg>
