<svg width="20" height="20" viewBox="0 0 20 20" fill="none" xmlns="http://www.w3.org/2000/svg">
<path d="M16.8816 10.8812C16.9201 10.6 16.9394 10.3094 16.9394 10C16.9394 9.7 16.9201 9.4 16.8719 9.11875L18.8284 7.6375C19.0019 7.50625 19.0501 7.25312 18.9441 7.06562L17.0936 3.95312C16.9779 3.74687 16.737 3.68125 16.525 3.74687L14.2215 4.64687C13.7396 4.29062 13.2287 3.99062 12.6601 3.76562L12.3131 1.38437C12.2746 1.15937 12.0818 1 11.8505 1H8.1495C7.91818 1 7.73506 1.15937 7.69651 1.38437L7.34954 3.76562C6.7809 3.99062 6.26044 4.3 5.78818 4.64687L3.48469 3.74687C3.27265 3.67187 3.0317 3.74687 2.91604 3.95312L1.07518 7.06562C0.959521 7.2625 0.998073 7.50625 1.19083 7.6375L3.14736 9.11875C3.09916 9.4 3.06061 9.70938 3.06061 10C3.06061 10.2906 3.07989 10.6 3.12808 10.8812L1.17156 12.3625C0.998073 12.4938 0.949883 12.7469 1.0559 12.9344L2.9064 16.0469C3.02206 16.2531 3.26301 16.3188 3.47505 16.2531L5.77854 15.3531C6.26044 15.7094 6.77126 16.0094 7.3399 16.2344L7.68687 18.6156C7.73506 18.8406 7.91818 19 8.1495 19H11.8505C12.0818 19 12.2746 18.8406 12.3035 18.6156L12.6505 16.2344C13.2191 16.0094 13.7396 15.7094 14.2118 15.3531L16.5153 16.2531C16.7274 16.3281 16.9683 16.2531 17.084 16.0469L18.9345 12.9344C19.0501 12.7281 19.0019 12.4938 18.8188 12.3625L16.8816 10.8812Z" stroke="#4672FF" stroke-width="2"/>
<path d="M10.4772 7.03774C10.3218 7.0129 10.1624 7 10 7C8.34315 7 7 8.34315 7 10C7 11.6569 8.34315 13 10 13C11.6569 13 13 11.6569 13 10C13 9.86318 12.9908 9.72849 12.9731 9.59653" stroke="#4672FF" stroke-width="2" stroke-linecap="round"/>
</svg>
