<svg width="15" height="16" viewBox="0 0 15 16" fill="none" xmlns="http://www.w3.org/2000/svg">
<g id="Group 593">
<circle id="Ellipse 72" cx="7.5" cy="8" r="7.5" fill="#5546FF"/>
<path id="Star 1" d="M7.21663 3.31522C7.31002 3.04655 7.68998 3.04655 7.78337 3.31522L8.72459 6.02298C8.76578 6.1415 8.87639 6.22186 9.00184 6.22442L11.8679 6.28282C12.1523 6.28862 12.2697 6.64998 12.0431 6.82182L9.75868 8.55372C9.65869 8.62952 9.61644 8.75955 9.65278 8.87965L10.4829 11.6235C10.5653 11.8958 10.2579 12.1191 10.0244 11.9566L7.67135 10.3192C7.56836 10.2476 7.43164 10.2476 7.32865 10.3192L4.9756 11.9566C4.74213 12.1191 4.43474 11.8958 4.5171 11.6235L5.34722 8.87965C5.38356 8.75955 5.34131 8.62952 5.24132 8.55372L2.95694 6.82182C2.73028 6.64998 2.84769 6.28862 3.13207 6.28282L5.99816 6.22442C6.12361 6.22186 6.23422 6.1415 6.27541 6.02298L7.21663 3.31522Z" fill="#F6F3FF"/>
<path id="Vector 73" d="M5 12.5L12.5 7" stroke="#5546FF" stroke-width="0.8"/>
</g>
</svg>
